<svg xmlns="http://www.w3.org/2000/svg" width="36" height="28.758" viewBox="0 0 36 28.758">
  <g id="blog_read_more" transform="translate(36 32.041) rotate(180)">
    <path id="Tracé_496" data-name="Tracé 496" d="M35.448,16.92H.552a.552.552,0,1,1,0-1.1h34.9a.552.552,0,0,1,0,1.1Z" transform="translate(0 1.292)" fill="#fff"/>
    <path id="Tracé_497" data-name="Tracé 497" d="M14.381,32.041a.554.554,0,0,1-.391-.161L.161,18.049a.554.554,0,0,1,0-.781L13.992,3.444a.551.551,0,1,1,.78.78L1.331,17.659,14.772,31.1a.552.552,0,0,1-.391.942Z" transform="translate(0 0)" fill="#fff"/>
  </g>
</svg>
