<svg xmlns="http://www.w3.org/2000/svg" width="84.008" height="82.757" viewBox="0 0 84.008 82.757">
  <g id="favorites_1_" data-name="favorites (1)" transform="translate(0 -3.81)">
    <g id="Groupe_1122" data-name="Groupe 1122" transform="translate(4.853 3.81)">
      <g id="Groupe_1121" data-name="Groupe 1121">
        <path id="Tracé_488" data-name="Tracé 488" d="M102.2,36.281a5.54,5.54,0,0,0-3.07-9.45L80.749,24.161a1.107,1.107,0,0,1-.834-.606L71.694,6.9a5.54,5.54,0,0,0-9.936,0l-8.22,16.656a1.109,1.109,0,0,1-.834.606L34.322,26.832a5.54,5.54,0,0,0-3.07,9.45l13.3,12.965a1.108,1.108,0,0,1,.319.981l-3.14,18.307a5.54,5.54,0,0,0,8.038,5.84l16.441-8.643a1.108,1.108,0,0,1,1.031,0l16.441,8.643a5.54,5.54,0,0,0,8.038-5.841l-3.14-18.307a1.109,1.109,0,0,1,.319-.981Zm-17.988,14.7,3.14,18.307a1.108,1.108,0,0,1-1.608,1.168L69.3,61.808a5.54,5.54,0,0,0-5.156,0L47.708,70.452A1.108,1.108,0,0,1,46.1,69.284l3.14-18.307a5.538,5.538,0,0,0-1.593-4.9l-13.3-12.965a1.108,1.108,0,0,1,.614-1.89l18.381-2.671a5.539,5.539,0,0,0,4.172-3.031L65.733,8.86a1.108,1.108,0,0,1,1.987,0h0l8.22,16.656a5.538,5.538,0,0,0,4.171,3.031l18.381,2.671a1.108,1.108,0,0,1,.614,1.89l-13.3,12.965A5.538,5.538,0,0,0,84.213,50.977Z" transform="translate(-29.574 -3.81)" fill="#fff"/>
      </g>
    </g>
    <g id="Groupe_1124" data-name="Groupe 1124" transform="translate(62.022 6.474)">
      <g id="Groupe_1123" data-name="Groupe 1123">
        <path id="Tracé_489" data-name="Tracé 489" d="M383.872,20.468a2.216,2.216,0,0,0-3.1.49L378.424,24.2A2.216,2.216,0,0,0,382.01,26.8l2.352-3.238A2.216,2.216,0,0,0,383.872,20.468Z" transform="translate(-378.001 -20.045)" fill="#fff"/>
      </g>
    </g>
    <g id="Groupe_1126" data-name="Groupe 1126" transform="translate(15.192 6.461)">
      <g id="Groupe_1125" data-name="Groupe 1125" transform="translate(0 0)">
        <path id="Tracé_490" data-name="Tracé 490" d="M98.951,24.117,96.6,20.88a2.216,2.216,0,1,0-3.586,2.605l2.352,3.238a2.216,2.216,0,1,0,3.586-2.605Z" transform="translate(-92.59 -19.966)" fill="#fff"/>
      </g>
    </g>
    <g id="Groupe_1128" data-name="Groupe 1128" transform="translate(0 51.997)">
      <g id="Groupe_1127" data-name="Groupe 1127" transform="translate(0)">
        <path id="Tracé_491" data-name="Tracé 491" d="M8.131,299.025A2.216,2.216,0,0,0,5.338,297.6l-3.806,1.237a2.216,2.216,0,1,0,1.37,4.215l3.806-1.237A2.216,2.216,0,0,0,8.131,299.025Z" transform="translate(0 -297.493)" fill="#fff"/>
      </g>
    </g>
    <g id="Groupe_1130" data-name="Groupe 1130" transform="translate(39.789 78.133)">
      <g id="Groupe_1129" data-name="Groupe 1129">
        <path id="Tracé_492" data-name="Tracé 492" d="M244.715,456.786A2.216,2.216,0,0,0,242.5,459v4a2.216,2.216,0,0,0,4.432,0v-4A2.216,2.216,0,0,0,244.715,456.786Z" transform="translate(-242.499 -456.786)" fill="#fff"/>
      </g>
    </g>
    <g id="Groupe_1132" data-name="Groupe 1132" transform="translate(75.768 52)">
      <g id="Groupe_1131" data-name="Groupe 1131">
        <path id="Tracé_493" data-name="Tracé 493" d="M468.491,298.859l-3.806-1.237a2.216,2.216,0,0,0-1.37,4.215l3.806,1.237a2.216,2.216,0,0,0,1.37-4.215Z" transform="translate(-461.783 -297.513)" fill="#fff"/>
      </g>
    </g>
  </g>
</svg>
