<svg id="layers" xmlns="http://www.w3.org/2000/svg" width="88.602" height="86.741" viewBox="0 0 88.602 86.741">
  <g id="Groupe_1096" data-name="Groupe 1096" transform="translate(0 0)">
    <path id="Tracé_464" data-name="Tracé 464" d="M1.079,35.316,43.138,61.5a2.219,2.219,0,0,0,2.345,0L87.541,35.316a2.229,2.229,0,0,0,0-3.8L45.483,5.335a2.252,2.252,0,0,0-2.363,0L1.061,31.519a2.219,2.219,0,0,0,.019,3.8ZM44.31,9.857l37.834,23.56L44.31,56.978,6.476,33.417Z" transform="translate(0 -5)" fill="#fff"/>
    <path id="Tracé_465" data-name="Tracé 465" d="M454.333,226.1a2.224,2.224,0,1,0,1.582.651A2.255,2.255,0,0,0,454.333,226.1Z" transform="translate(-367.964 -184.953)" fill="#fff"/>
    <path id="Tracé_466" data-name="Tracé 466" d="M415.49,249.922a2.214,2.214,0,0,0-.707,3.071,2.27,2.27,0,0,0,1.9,1.061,2.2,2.2,0,0,0,1.172-.335,2.236,2.236,0,0,0-2.363-3.8Z" transform="translate(-337.31 -204.068)" fill="#fff"/>
    <path id="Tracé_467" data-name="Tracé 467" d="M302.49,320.242a2.236,2.236,0,1,0,3.071.726A2.214,2.214,0,0,0,302.49,320.242Z" transform="translate(-245.339 -261.304)" fill="#fff"/>
    <path id="Tracé_468" data-name="Tracé 468" d="M264.826,343.722a2.239,2.239,0,0,0,1.191,4.131,2.2,2.2,0,0,0,1.172-.335,2.236,2.236,0,0,0-2.363-3.8Z" transform="translate(-214.691 -280.411)" fill="#fff"/>
    <path id="Tracé_469" data-name="Tracé 469" d="M340.168,296.822a2.233,2.233,0,0,0,1.172,4.131,2.2,2.2,0,0,0,1.172-.335,2.23,2.23,0,0,0,.707-3.071A2.194,2.194,0,0,0,340.168,296.822Z" transform="translate(-276 -242.239)" fill="#fff"/>
    <path id="Tracé_470" data-name="Tracé 470" d="M377.826,273.422a2.23,2.23,0,0,0-.707,3.071,2.27,2.27,0,0,0,1.9,1.061,2.2,2.2,0,0,0,1.172-.335,2.236,2.236,0,0,0-2.363-3.8Z" transform="translate(-306.662 -223.194)" fill="#fff"/>
    <path id="Tracé_471" data-name="Tracé 471" d="M226.751,367.451a2.246,2.246,0,1,0,1.582-.651A2.288,2.288,0,0,0,226.751,367.451Z" transform="translate(-184.023 -299.469)" fill="#fff"/>
    <path id="Tracé_472" data-name="Tracé 472" d="M188.719,344.4a2.23,2.23,0,0,0,.707,3.071,2.294,2.294,0,0,0,1.172.335,2.228,2.228,0,1,0-1.88-3.406Z" transform="translate(-153.323 -280.386)" fill="#fff"/>
    <path id="Tracé_473" data-name="Tracé 473" d="M38.119,250.568a2.23,2.23,0,0,0,.707,3.071,2.294,2.294,0,0,0,1.172.335,2.232,2.232,0,1,0-1.88-3.406Z" transform="translate(-30.749 -204.005)" fill="#fff"/>
    <path id="Tracé_474" data-name="Tracé 474" d="M151.119,320.968a2.23,2.23,0,0,0,.707,3.071,2.294,2.294,0,0,0,1.172.335,2.232,2.232,0,1,0-1.88-3.406Z" transform="translate(-122.72 -261.304)" fill="#fff"/>
    <path id="Tracé_475" data-name="Tracé 475" d="M113.419,297.5a2.23,2.23,0,0,0,.707,3.071,2.294,2.294,0,0,0,1.172.335,2.229,2.229,0,1,0-1.88-3.406Z" transform="translate(-92.036 -242.214)" fill="#fff"/>
    <path id="Tracé_476" data-name="Tracé 476" d="M75.719,274.1a2.23,2.23,0,0,0,.707,3.071,2.294,2.294,0,0,0,1.172.335,2.239,2.239,0,0,0,1.191-4.131A2.252,2.252,0,0,0,75.719,274.1Z" transform="translate(-61.352 -223.168)" fill="#fff"/>
    <path id="Tracé_477" data-name="Tracé 477" d="M2.333,230.566a2.233,2.233,0,1,0-1.582-3.815,2.246,2.246,0,0,0,0,3.164A2.209,2.209,0,0,0,2.333,230.566Z" transform="translate(-0.081 -184.953)" fill="#fff"/>
    <path id="Tracé_478" data-name="Tracé 478" d="M85.262,306.819,44.376,332.277,3.49,306.819A2.228,2.228,0,1,0,1.126,310.6l42.058,26.184a2.219,2.219,0,0,0,2.345,0L87.588,310.6a2.23,2.23,0,0,0,.707-3.071A2.179,2.179,0,0,0,85.262,306.819Z" transform="translate(-0.065 -250.375)" fill="#fff"/>
  </g>
</svg>
