<svg xmlns="http://www.w3.org/2000/svg" width="52" height="59.429" viewBox="0 0 52 59.429">
  <g id="management_1_" data-name="management (1)" transform="translate(-32)">
    <g id="Groupe_1064" data-name="Groupe 1064" transform="translate(43.143)">
      <g id="Groupe_1063" data-name="Groupe 1063">
        <path id="Tracé_443" data-name="Tracé 443" d="M156.476,11.143h-3.122a11.483,11.483,0,0,0-.448-1.081l2.209-2.209a1.238,1.238,0,0,0,0-1.751l-3.5-3.5a1.238,1.238,0,0,0-1.751,0l-2.209,2.209a11.456,11.456,0,0,0-1.081-.448V1.238A1.238,1.238,0,0,0,145.333,0h-4.952a1.238,1.238,0,0,0-1.238,1.238V4.361a11.462,11.462,0,0,0-1.081.447L135.853,2.6a1.238,1.238,0,0,0-1.751,0l-3.5,3.5a1.238,1.238,0,0,0,0,1.751l2.209,2.209a11.455,11.455,0,0,0-.448,1.081h-3.122A1.238,1.238,0,0,0,128,12.381v4.952a1.238,1.238,0,0,0,1.238,1.238h3.122a11.463,11.463,0,0,0,.447,1.081L130.6,21.861a1.238,1.238,0,0,0,0,1.751l3.5,3.5a1.238,1.238,0,0,0,1.751,0l2.209-2.209a11.459,11.459,0,0,0,1.081.448v3.122a1.238,1.238,0,0,0,1.238,1.238h4.952a1.238,1.238,0,0,0,1.238-1.238V25.355a11.489,11.489,0,0,0,1.081-.448l2.209,2.208a1.238,1.238,0,0,0,1.751,0l3.5-3.5a1.238,1.238,0,0,0,0-1.751l-2.209-2.209a11.455,11.455,0,0,0,.448-1.081h3.122a1.238,1.238,0,0,0,1.238-1.238V12.381A1.238,1.238,0,0,0,156.476,11.143Zm-1.238,4.951h-2.8a1.238,1.238,0,0,0-1.2.929,8.665,8.665,0,0,1-.922,2.229,1.238,1.238,0,0,0,.191,1.506l1.981,1.981-1.751,1.751-1.981-1.981a1.238,1.238,0,0,0-1.506-.191,8.666,8.666,0,0,1-2.229.922,1.238,1.238,0,0,0-.929,1.2v2.8h-2.476v-2.8a1.238,1.238,0,0,0-.929-1.2,8.666,8.666,0,0,1-2.229-.922,1.238,1.238,0,0,0-1.506.191l-1.981,1.981-1.751-1.751,1.981-1.981a1.238,1.238,0,0,0,.191-1.506,8.666,8.666,0,0,1-.922-2.229,1.238,1.238,0,0,0-1.2-.929h-2.8V13.622h2.8a1.238,1.238,0,0,0,1.2-.929,8.665,8.665,0,0,1,.922-2.229,1.238,1.238,0,0,0-.191-1.506l-1.981-1.981,1.748-1.752,1.981,1.981a1.238,1.238,0,0,0,1.506.191,8.666,8.666,0,0,1,2.229-.922,1.238,1.238,0,0,0,.929-1.2v-2.8H144.1v2.8a1.238,1.238,0,0,0,.926,1.2,8.665,8.665,0,0,1,2.229.922,1.238,1.238,0,0,0,1.506-.191l1.981-1.981,1.752,1.748-1.981,1.981a1.238,1.238,0,0,0-.191,1.506,8.666,8.666,0,0,1,.922,2.229,1.238,1.238,0,0,0,1.2.929h2.8Z" transform="translate(-128)" fill="#fff"/>
      </g>
    </g>
    <g id="Groupe_1066" data-name="Groupe 1066" transform="translate(53.048 9.905)">
      <g id="Groupe_1065" data-name="Groupe 1065" transform="translate(0)">
        <path id="Tracé_444" data-name="Tracé 444" d="M218.285,85.333a4.952,4.952,0,1,0,4.952,4.952A4.952,4.952,0,0,0,218.285,85.333Zm0,7.429a2.476,2.476,0,1,1,2.476-2.476A2.476,2.476,0,0,1,218.285,92.762Z" transform="translate(-213.333 -85.333)" fill="#fff"/>
      </g>
    </g>
    <g id="Groupe_1068" data-name="Groupe 1068" transform="translate(36.952 24.762)">
      <g id="Groupe_1067" data-name="Groupe 1067" transform="translate(0)">
        <path id="Tracé_445" data-name="Tracé 445" d="M87.048,219.524v2.44c0,4.122-2.221,7.464-4.952,7.464s-4.952-3.343-4.952-7.464V219.7A5.28,5.28,0,0,1,82.1,215.81v-2.476a7.744,7.744,0,0,0-7.391,5.89,1.24,1.24,0,0,0-.037.3v2.44c0,5.574,3.264,9.941,7.429,9.941s7.429-4.367,7.429-9.941v-2.44Z" transform="translate(-74.667 -213.334)" fill="#fff"/>
      </g>
    </g>
    <g id="Groupe_1070" data-name="Groupe 1070" transform="translate(45.617 40.857)">
      <g id="Groupe_1069" data-name="Groupe 1069">
        <path id="Tracé_446" data-name="Tracé 446" d="M154.27,354.476A2.331,2.331,0,0,1,151.794,352h-2.476q0,.142,0,.284a4.812,4.812,0,0,0,4.952,4.668,3.714,3.714,0,0,1,3.714,3.714v9.9h2.476v-9.9A6.2,6.2,0,0,0,154.27,354.476Z" transform="translate(-149.316 -352)" fill="#fff"/>
      </g>
    </g>
    <g id="Groupe_1072" data-name="Groupe 1072" transform="translate(32 40.857)">
      <g id="Groupe_1071" data-name="Groupe 1071" transform="translate(0)">
        <path id="Tracé_447" data-name="Tracé 447" d="M43.143,352H40.667a2.333,2.333,0,0,1-2.476,2.476A6.2,6.2,0,0,0,32,360.667v9.9h2.476v-9.9a3.714,3.714,0,0,1,3.714-3.714q.142,0,.284,0A4.812,4.812,0,0,0,43.143,352Z" transform="translate(-32 -352)" fill="#fff"/>
      </g>
    </g>
    <g id="Groupe_1074" data-name="Groupe 1074" transform="translate(36.953 50.762)">
      <g id="Groupe_1073" data-name="Groupe 1073" transform="translate(0)">
        <rect id="Rectangle_9" data-name="Rectangle 9" width="2.476" height="8.667" fill="#fff"/>
      </g>
    </g>
    <g id="Groupe_1076" data-name="Groupe 1076" transform="translate(49.333 50.762)">
      <g id="Groupe_1075" data-name="Groupe 1075">
        <rect id="Rectangle_10" data-name="Rectangle 10" width="2.476" height="8.667" fill="#fff"/>
      </g>
    </g>
    <g id="Groupe_1078" data-name="Groupe 1078" transform="translate(64.19 24.762)">
      <g id="Groupe_1077" data-name="Groupe 1077">
        <path id="Tracé_448" data-name="Tracé 448" d="M324.153,219.224a7.744,7.744,0,0,0-7.391-5.89v2.476a5.282,5.282,0,0,1,4.952,3.888v2.267c0,4.122-2.221,7.464-4.952,7.464s-4.952-3.343-4.952-7.464v-2.44h-2.476v2.44c0,5.574,3.264,9.941,7.429,9.941s7.429-4.367,7.429-9.941v-2.44A1.234,1.234,0,0,0,324.153,219.224Z" transform="translate(-309.333 -213.334)" fill="#fff"/>
      </g>
    </g>
    <g id="Groupe_1080" data-name="Groupe 1080" transform="translate(72.855 40.857)">
      <g id="Groupe_1079" data-name="Groupe 1079">
        <path id="Tracé_449" data-name="Tracé 449" d="M388.936,354.476A2.331,2.331,0,0,1,386.46,352h-2.476q0,.142,0,.284a4.812,4.812,0,0,0,4.952,4.668,3.714,3.714,0,0,1,3.714,3.714v9.9h2.476v-9.9A6.2,6.2,0,0,0,388.936,354.476Z" transform="translate(-383.982 -352)" fill="#fff"/>
      </g>
    </g>
    <g id="Groupe_1082" data-name="Groupe 1082" transform="translate(59.238 40.857)">
      <g id="Groupe_1081" data-name="Groupe 1081" transform="translate(0)">
        <path id="Tracé_450" data-name="Tracé 450" d="M277.811,352h-2.476a2.333,2.333,0,0,1-2.476,2.476,6.2,6.2,0,0,0-6.19,6.19v9.9h2.476v-9.9a3.714,3.714,0,0,1,3.714-3.714q.142,0,.284,0A4.813,4.813,0,0,0,277.811,352Z" transform="translate(-266.668 -352)" fill="#fff"/>
      </g>
    </g>
    <g id="Groupe_1084" data-name="Groupe 1084" transform="translate(64.19 50.762)">
      <g id="Groupe_1083" data-name="Groupe 1083" transform="translate(0)">
        <rect id="Rectangle_11" data-name="Rectangle 11" width="2.476" height="8.667" fill="#fff"/>
      </g>
    </g>
    <g id="Groupe_1086" data-name="Groupe 1086" transform="translate(76.571 50.762)">
      <g id="Groupe_1085" data-name="Groupe 1085">
        <rect id="Rectangle_12" data-name="Rectangle 12" width="2.476" height="8.667" fill="#fff"/>
      </g>
    </g>
    <g id="Groupe_1088" data-name="Groupe 1088" transform="translate(56.762 32.19)">
      <g id="Groupe_1087" data-name="Groupe 1087" transform="translate(0)">
        <rect id="Rectangle_13" data-name="Rectangle 13" width="2.476" height="2.476" fill="#fff"/>
      </g>
    </g>
    <g id="Groupe_1090" data-name="Groupe 1090" transform="translate(56.762 37.143)">
      <g id="Groupe_1089" data-name="Groupe 1089" transform="translate(0)">
        <rect id="Rectangle_14" data-name="Rectangle 14" width="2.476" height="2.476" fill="#fff"/>
      </g>
    </g>
    <g id="Groupe_1092" data-name="Groupe 1092" transform="translate(56.762 42.096)">
      <g id="Groupe_1091" data-name="Groupe 1091" transform="translate(0)">
        <rect id="Rectangle_15" data-name="Rectangle 15" width="2.476" height="2.476" fill="#fff"/>
      </g>
    </g>
  </g>
</svg>
