<svg xmlns="http://www.w3.org/2000/svg" width="219" height="221" viewBox="0 0 219 221">
  <g id="play_video" transform="translate(-1526 -5008.532)">
    <rect id="Rectangle_25" data-name="Rectangle 25" width="219" height="221" rx="10" transform="translate(1526 5008.532)" fill="#fdd0d2" opacity="0.97"/>
    <path id="play-button_4_" data-name="play-button (4)" d="M72.552,36.855,8.939.321A2.585,2.585,0,0,0,6.674.208,1.814,1.814,0,0,0,5.5,1.825V74.891A1.816,1.816,0,0,0,6.674,76.51a2.576,2.576,0,0,0,1.02.208,2.526,2.526,0,0,0,1.246-.323L72.552,39.861a1.666,1.666,0,0,0,0-3.007Z" transform="translate(1605.5 5081)" fill="#fff"/>
  </g>
</svg>
