<svg xmlns="http://www.w3.org/2000/svg" width="84.857" height="77.741" viewBox="0 0 84.857 77.741">
  <g id="rating_1_" data-name="rating (1)" transform="translate(0 -21.467)">
    <g id="Groupe_1098" data-name="Groupe 1098" transform="translate(0 21.467)">
      <g id="Groupe_1097" data-name="Groupe 1097" transform="translate(0 0)">
        <path id="Tracé_479" data-name="Tracé 479" d="M77.589,44.072H74.016v-2.3l2.229-2.455a6.9,6.9,0,0,0,1.795-4.646V28.851a7.392,7.392,0,0,0-7.384-7.384h-3.4a7.392,7.392,0,0,0-7.384,7.384v5.822a6.9,6.9,0,0,0,1.794,4.646l2.23,2.456v2.3H60.328a7.279,7.279,0,0,0-7.1,5.706,8.04,8.04,0,0,0-1.115-.079H47.93V46.888l2.553-2.811a7.609,7.609,0,0,0,1.979-5.125V32.394a8.164,8.164,0,0,0-8.155-8.155,1.276,1.276,0,0,0,0,2.551,5.61,5.61,0,0,1,5.6,5.6v6.558a5.062,5.062,0,0,1-1.317,3.409l-2.629,2.9a1.275,1.275,0,0,0-.586,1.074v4.644a1.275,1.275,0,0,0,1.276,1.276h5.461a5.479,5.479,0,0,1,5.473,5.473v8H27.2v-8a5.482,5.482,0,0,1,3.58-5.135,1.258,1.258,0,0,0,.28-.095,5.458,5.458,0,0,1,1.612-.243h5.461a1.276,1.276,0,0,0,1.276-1.276V46.33a1.275,1.275,0,0,0-.586-1.074l-2.629-2.9a5.062,5.062,0,0,1-1.317-3.409V32.394a5.61,5.61,0,0,1,5.6-5.6,1.276,1.276,0,1,0,0-2.551,8.164,8.164,0,0,0-8.155,8.155v6.558a7.609,7.609,0,0,0,1.979,5.125l2.553,2.811V49.7H32.674a8.027,8.027,0,0,0-1.051.071,7.279,7.279,0,0,0-7.095-5.7H20.956v-2.3l2.229-2.455a6.9,6.9,0,0,0,1.795-4.646V28.851A7.392,7.392,0,0,0,17.6,21.467H14.2a7.392,7.392,0,0,0-7.384,7.384v5.822a6.9,6.9,0,0,0,1.795,4.646l2.229,2.455v2.3H7.268A7.276,7.276,0,0,0,0,51.339v8.24a1.276,1.276,0,0,0,1.276,1.276H21.124a1.276,1.276,0,1,0,0-2.551H2.551V51.339a4.722,4.722,0,0,1,4.716-4.716h4.849a1.276,1.276,0,0,0,1.276-1.276V41.224a1.274,1.274,0,0,0-.57-1.063L10.5,37.6a4.351,4.351,0,0,1-1.132-2.931V28.851A4.838,4.838,0,0,1,14.2,24.018h3.4a4.838,4.838,0,0,1,4.832,4.832v5.822A4.351,4.351,0,0,1,21.3,37.6l-2.322,2.557a1.275,1.275,0,0,0-.57,1.063v4.124a1.276,1.276,0,0,0,1.276,1.276h4.849a4.723,4.723,0,0,1,4.641,3.883,8.033,8.033,0,0,0-4.519,7.216V67a1.276,1.276,0,0,0,1.276,1.276H58.864A1.275,1.275,0,0,0,60.14,67v-9.28a8.032,8.032,0,0,0-4.458-7.185,4.723,4.723,0,0,1,4.647-3.914h4.849a1.275,1.275,0,0,0,1.276-1.276V41.224a1.274,1.274,0,0,0-.57-1.063L63.56,37.6a4.351,4.351,0,0,1-1.132-2.931V28.851a4.838,4.838,0,0,1,4.832-4.832h3.4a4.838,4.838,0,0,1,4.832,4.832v5.822A4.351,4.351,0,0,1,74.357,37.6l-2.322,2.557a1.274,1.274,0,0,0-.57,1.063v4.124a1.275,1.275,0,0,0,1.276,1.276h4.849a4.722,4.722,0,0,1,4.716,4.716V58.3H63.952a1.276,1.276,0,1,0,0,2.551H83.581a1.275,1.275,0,0,0,1.276-1.276v-8.24A7.275,7.275,0,0,0,77.589,44.072Z" transform="translate(0 -21.467)" fill="#fff"/>
      </g>
    </g>
    <g id="Groupe_1100" data-name="Groupe 1100" transform="translate(30.495 75.473)">
      <g id="Groupe_1099" data-name="Groupe 1099" transform="translate(0 0)">
        <path id="Tracé_480" data-name="Tracé 480" d="M208.762,356.3a1.275,1.275,0,0,0-1.007-.865l-6.969-1.144-3.241-6.274a1.275,1.275,0,0,0-2.267,0l-3.241,6.274-6.969,1.144a1.276,1.276,0,0,0-.7,2.156l4.965,5.021-1.066,6.981a1.275,1.275,0,0,0,1.834,1.332l6.31-3.171,6.31,3.171a1.276,1.276,0,0,0,1.834-1.332l-1.066-6.981,4.965-5.021A1.274,1.274,0,0,0,208.762,356.3Zm-7.536,4.974a1.277,1.277,0,0,0-.354,1.089l.79,5.173-4.676-2.349a1.276,1.276,0,0,0-1.145,0l-4.676,2.349.79-5.173a1.275,1.275,0,0,0-.354-1.089l-3.68-3.721,5.164-.848a1.276,1.276,0,0,0,.927-.673l2.4-4.65,2.4,4.65a1.276,1.276,0,0,0,.927.673l5.164.848Z" transform="translate(-184 -347.325)" fill="#fff"/>
      </g>
    </g>
    <g id="Groupe_1102" data-name="Groupe 1102" transform="translate(58.42 66.093)">
      <g id="Groupe_1101" data-name="Groupe 1101">
        <path id="Tracé_481" data-name="Tracé 481" d="M377.25,299.7a1.276,1.276,0,0,0-1.006-.865l-6.969-1.144-3.241-6.274a1.275,1.275,0,0,0-2.267,0l-3.241,6.274-6.969,1.144a1.276,1.276,0,0,0-.7,2.156l4.965,5.021-1.066,6.981a1.276,1.276,0,0,0,1.834,1.332l6.31-3.171,6.31,3.171a1.276,1.276,0,0,0,1.834-1.332l-1.066-6.981,4.965-5.021A1.274,1.274,0,0,0,377.25,299.7Zm-7.536,4.974a1.276,1.276,0,0,0-.354,1.089l.79,5.173-4.676-2.349a1.275,1.275,0,0,0-1.146,0l-4.676,2.349.79-5.173a1.276,1.276,0,0,0-.354-1.089l-3.68-3.721,5.164-.848a1.276,1.276,0,0,0,.927-.673l2.4-4.65,2.4,4.65a1.277,1.277,0,0,0,.927.673l5.164.848Z" transform="translate(-352.488 -290.728)" fill="#fff"/>
      </g>
    </g>
    <g id="Groupe_1104" data-name="Groupe 1104" transform="translate(2.571 66.093)">
      <g id="Groupe_1103" data-name="Groupe 1103">
        <path id="Tracé_482" data-name="Tracé 482" d="M40.274,299.7a1.276,1.276,0,0,0-1.007-.865L32.3,297.692l-3.241-6.274a1.276,1.276,0,0,0-2.267,0l-3.241,6.274-6.969,1.144a1.276,1.276,0,0,0-.7,2.156l4.965,5.021-1.066,6.981a1.276,1.276,0,0,0,1.834,1.332l6.31-3.171,6.31,3.171a1.276,1.276,0,0,0,1.834-1.332L35,306.014l4.965-5.021A1.275,1.275,0,0,0,40.274,299.7Zm-7.536,4.974a1.276,1.276,0,0,0-.354,1.089l.79,5.173L28.5,308.589a1.275,1.275,0,0,0-1.146,0l-4.676,2.349.79-5.173a1.275,1.275,0,0,0-.354-1.089l-3.679-3.721,5.164-.848a1.277,1.277,0,0,0,.927-.673l2.4-4.65,2.4,4.65a1.277,1.277,0,0,0,.927.673l5.164.848Z" transform="translate(-15.512 -290.728)" fill="#fff"/>
      </g>
    </g>
  </g>
</svg>
