<svg xmlns="http://www.w3.org/2000/svg" width="48.667" height="48.664" viewBox="0 0 48.667 48.664">
  <g id="search-engine" transform="translate(0.001 0)">
    <path id="Tracé_451" data-name="Tracé 451" d="M362.047,69.129l-2.314-2.314-2.314,2.314-1.075-1.075,3.389-3.389,3.389,3.389Zm0,0" transform="translate(-322.474 -58.518)" fill="#fff"/>
    <path id="Tracé_452" data-name="Tracé 452" d="M384,79.977h1.521v8.364H384Zm0,0" transform="translate(-347.501 -72.375)" fill="#fff"/>
    <path id="Tracé_453" data-name="Tracé 453" d="M41.061,25.851H39.54v-3.27a11.406,11.406,0,1,0-4.563,0v3.27H33.457V47.143H30.415V22.81h-7.6V47.143H19.77V28.893h-7.6v18.25H9.124V36.5H1.52V47.143H0v1.521H48.665V47.143h-7.6ZM7.6,47.143H3.041V38.018H7.6Zm10.646,0H13.687V30.414h4.562Zm10.646,0H24.332V24.331h4.562ZM27.374,11.4a9.885,9.885,0,1,1,11.3,9.784l-.652.094v4.57H36.5v-4.57l-.652-.094A9.932,9.932,0,0,1,27.374,11.4ZM39.54,47.143H34.978V27.372H39.54Zm0,0" fill="#fff"/>
    <path id="Tracé_454" data-name="Tracé 454" d="M320.729,40.341a8.364,8.364,0,1,0-8.364,8.364,8.364,8.364,0,0,0,8.364-8.364Zm-15.208,0a6.844,6.844,0,1,1,6.844,6.844,6.844,6.844,0,0,1-6.844-6.844Zm0,0" transform="translate(-275.105 -28.938)" fill="#fff"/>
    <path id="Tracé_455" data-name="Tracé 455" d="M13.265,185.1h5.34l6.529-6.529v1.966h1.521v-4.562H22.093V177.5h1.966l-6.083,6.083H12.671l-10.1,9.327L3.6,194.024Zm0,0" transform="translate(-2.323 -159.25)" fill="#fff"/>
    <path id="Tracé_456" data-name="Tracé 456" d="M464,271.977h4.562V273.5H464Zm0,0" transform="translate(-419.897 -246.126)" fill="#fff"/>
    <path id="Tracé_457" data-name="Tracé 457" d="M464,303.977h4.562V305.5H464Zm0,0" transform="translate(-419.897 -275.084)" fill="#fff"/>
    <path id="Tracé_458" data-name="Tracé 458" d="M464,335.977h4.562V337.5H464Zm0,0" transform="translate(-419.897 -304.042)" fill="#fff"/>
    <path id="Tracé_459" data-name="Tracé 459" d="M464,367.977h4.562V369.5H464Zm0,0" transform="translate(-419.897 -333.001)" fill="#fff"/>
    <path id="Tracé_460" data-name="Tracé 460" d="M464,399.977h4.562V401.5H464Zm0,0" transform="translate(-419.897 -361.959)" fill="#fff"/>
    <path id="Tracé_461" data-name="Tracé 461" d="M464,431.977h4.562V433.5H464Zm0,0" transform="translate(-419.897 -390.917)" fill="#fff"/>
    <path id="Tracé_462" data-name="Tracé 462" d="M464,463.977h4.562V465.5H464Zm0,0" transform="translate(-419.897 -419.876)" fill="#fff"/>
  </g>
</svg>
