<svg id="skills" xmlns="http://www.w3.org/2000/svg" width="61.689" height="61.366" viewBox="0 0 61.689 61.366">
  <path id="Tracé_429" data-name="Tracé 429" d="M16.959,34.959a1.982,1.982,0,0,1,1.98,1.98h1.98a3.955,3.955,0,0,0-2.969-3.819V31h-1.98v2.12a3.951,3.951,0,0,0,.99,7.778,1.98,1.98,0,1,1-1.98,1.98H13A3.955,3.955,0,0,0,15.969,46.7v2.12h1.98V46.7a3.951,3.951,0,0,0-.99-7.778,1.98,1.98,0,1,1,0-3.959Z" transform="translate(-0.8 -1.307)" fill="#fff"/>
  <path id="Tracé_430" data-name="Tracé 430" d="M57.414,1H15.843a4.955,4.955,0,0,0-4.949,4.949V28.2a12.847,12.847,0,0,0,1.659,23.523l-5.23,1.046a6.9,6.9,0,0,0-5.3,4.89L.674,62.366H32.991l-1.345-4.708a6.9,6.9,0,0,0-5.3-4.89l-5.231-1.046a12.923,12.923,0,0,0,7.595-7.171H57.414A4.955,4.955,0,0,0,62.363,39.6V5.949A4.955,4.955,0,0,0,57.414,1Zm-38.6,51.468a1.98,1.98,0,1,1-3.959,0V52.3a12.8,12.8,0,0,0,1.98.168,12.923,12.923,0,0,0,1.98-.168ZM29.743,58.2l.625,2.185H25.523l-.8-3.209-1.92.479.683,2.73h-13.3l.682-2.73-1.92-.479-.8,3.209H3.3L3.923,58.2a4.929,4.929,0,0,1,3.788-3.493l5.34-1.068a3.959,3.959,0,0,0,7.564,0l5.341,1.068A4.927,4.927,0,0,1,29.743,58.2Zm-12.91-7.712A10.888,10.888,0,1,1,27.721,39.6,10.9,10.9,0,0,1,16.833,50.489ZM60.383,39.6a2.973,2.973,0,0,1-2.969,2.969H29.341A12.847,12.847,0,0,0,12.874,27.364V5.949A2.973,2.973,0,0,1,15.843,2.98H57.414a2.973,2.973,0,0,1,2.969,2.969Z" transform="translate(-0.674 -1)" fill="#fff"/>
  <path id="Tracé_431" data-name="Tracé 431" d="M56.755,19H50.816V38.8h-1.98V22.959H42.9V38.8h-1.98V26.918H34.98V38.8H33v1.98H58.734V38.8h-1.98ZM52.8,20.98h1.98V38.8H52.8Zm-7.918,3.959h1.98V38.8h-1.98ZM36.959,28.9h1.98v9.9h-1.98Z" transform="translate(-1.004 -1.184)" fill="#fff"/>
  <path id="Tracé_432" data-name="Tracé 432" d="M19,5h8.908V6.98H19Z" transform="translate(-0.861 -1.041)" fill="#fff"/>
  <path id="Tracé_433" data-name="Tracé 433" d="M19,9h8.908v1.98H19Z" transform="translate(-0.861 -1.082)" fill="#fff"/>
  <path id="Tracé_434" data-name="Tracé 434" d="M19,13h8.908v1.98H19Z" transform="translate(-0.861 -1.123)" fill="#fff"/>
  <path id="Tracé_435" data-name="Tracé 435" d="M19,17h8.908v1.98H19Z" transform="translate(-0.861 -1.164)" fill="#fff"/>
  <path id="Tracé_436" data-name="Tracé 436" d="M24,39h1.98v1.98H24Z" transform="translate(-0.912 -1.388)" fill="#fff"/>
  <path id="Tracé_437" data-name="Tracé 437" d="M8,39H9.98v1.98H8Z" transform="translate(-0.749 -1.388)" fill="#fff"/>
  <path id="Tracé_438" data-name="Tracé 438" d="M15,5h1.98V6.98H15Z" transform="translate(-0.82 -1.041)" fill="#fff"/>
  <path id="Tracé_439" data-name="Tracé 439" d="M15,9h1.98v1.98H15Z" transform="translate(-0.82 -1.082)" fill="#fff"/>
  <path id="Tracé_440" data-name="Tracé 440" d="M15,13h1.98v1.98H15Z" transform="translate(-0.82 -1.123)" fill="#fff"/>
  <path id="Tracé_441" data-name="Tracé 441" d="M15,17h1.98v1.98H15Z" transform="translate(-0.82 -1.164)" fill="#fff"/>
  <path id="Tracé_442" data-name="Tracé 442" d="M55.765,5A2.973,2.973,0,0,0,52.8,7.969a2.943,2.943,0,0,0,.147.879l-3.453,2.59a2.929,2.929,0,0,0-3.413.1l-1.3-.866a2.965,2.965,0,1,0-5.84-.724,2.921,2.921,0,0,0,.3,1.272l-1.994,1.994a2.942,2.942,0,0,0-1.273-.3,2.969,2.969,0,1,0,2.969,2.969,2.921,2.921,0,0,0-.3-1.272l1.994-1.994a2.9,2.9,0,0,0,3.044-.3l1.3.866a2.907,2.907,0,0,0-.1.724,2.969,2.969,0,1,0,5.939,0,2.937,2.937,0,0,0-.147-.879l3.452-2.589A2.969,2.969,0,1,0,55.765,5Zm-19.8,11.877a.99.99,0,1,1,.99-.99A.991.991,0,0,1,35.969,16.877Zm5.939-5.939a.99.99,0,1,1,.99-.99A.991.991,0,0,1,41.908,10.939ZM47.847,14.9a.99.99,0,1,1,.99-.99A.991.991,0,0,1,47.847,14.9Zm7.918-5.939a.99.99,0,1,1,.99-.99A.991.991,0,0,1,55.765,8.959Z" transform="translate(-1.004 -1.041)" fill="#fff"/>
</svg>
