<svg xmlns="http://www.w3.org/2000/svg" width="69.798" height="69.815" viewBox="0 0 69.798 69.815">
  <path id="target_1_" data-name="target (1)" d="M70.2,13.893A1.767,1.767,0,0,0,68.748,12.7L63.6,12.031a3.888,3.888,0,0,0-3.42-5.737h0a3.875,3.875,0,0,0-1.725.4L57.784,1.55A1.779,1.779,0,0,0,54.762.522L47.427,7.857a1.783,1.783,0,0,0-.5,1.54l1.187,7.385-.339.34a29.4,29.4,0,0,0-34.952-.617,1.024,1.024,0,1,0,1.19,1.666,27.309,27.309,0,0,1,32.293.424l-4.155,4.169a21.542,21.542,0,1,0,5.481,5.518l4.161-4.175A27.328,27.328,0,1,1,9.514,22.2,1.024,1.024,0,0,0,7.99,20.835a29.382,29.382,0,1,0,45.274,1.8l.26-.261L60.9,23.558a1.783,1.783,0,0,0,1.541-.5l1.575-1.575a1.024,1.024,0,0,0-1.448-1.448l-1.478,1.478-5.756-.925,6.7-6.7,5.91.771-.888.888A1.024,1.024,0,1,0,68.5,17l1.273-1.273a1.769,1.769,0,0,0,.426-1.831ZM55.824,2.355l.771,5.91-6.7,6.7-.925-5.756Zm-6.47,38.077a19.487,19.487,0,1,1-8.671-16.194L36.433,28.5A13.625,13.625,0,1,0,41.9,34.037l4.264-4.278a19.359,19.359,0,0,1,3.193,10.673ZM27.98,42.483a3.864,3.864,0,0,0,2.75,1.139h0a3.862,3.862,0,0,0,2.751-1.143l1.451-1.456a5.086,5.086,0,1,1-5.329-5.671l-1.629,1.635a3.9,3.9,0,0,0,0,5.5Zm-5.231-2.051a7.134,7.134,0,1,0,14.135-1.365l3.49-3.5a11.578,11.578,0,1,1-5.455-5.544l-3.446,3.457a7.128,7.128,0,0,0-8.725,6.953Zm9.285.6a1.828,1.828,0,0,1-1.3.541h0a1.841,1.841,0,0,1-1.3-3.141L58.879,8.883a1.829,1.829,0,0,1,1.3-.542h0a1.841,1.841,0,0,1,1.3,3.142Zm0,0" transform="translate(-0.5 0)" fill="#fff"/>
</svg>
