<svg xmlns="http://www.w3.org/2000/svg" width="690.457" height="1006.188" viewBox="0 0 690.457 1006.188">
  <g id="testmonials" transform="translate(-185.207 -5783.791)">
    <g id="speech-bubble" transform="translate(185.207 6009.293)">
      <path id="_1" data-name="1" d="M376.793,108.362A107.781,107.781,0,0,0,269.138.707H107.655A107.781,107.781,0,0,0,0,108.362v94.2c0,57.091,44.7,103.813,100.927,107.312V283.3a6.729,6.729,0,1,1,13.458,0v91.413l9.144-9.144a187.766,187.766,0,0,1,133.627-55.355h11.983A107.781,107.781,0,0,0,376.793,202.56Z" fill="#d5d5d5"/>
    </g>
    <g id="speech-bubble-2" data-name="speech-bubble" transform="translate(508.212 6579.293)">
      <path id="_2" data-name="2" d="M211.541,61.147A60.511,60.511,0,0,0,151.1.707H60.44A60.511,60.511,0,0,0,0,61.147v52.885a60.465,60.465,0,0,0,56.663,60.249V159.364a3.778,3.778,0,1,1,7.556,0v51.321l5.134-5.134a105.416,105.416,0,0,1,75.021-31.077H151.1a60.511,60.511,0,0,0,60.44-60.44Z" fill="#d5d5d5"/>
    </g>
    <g id="speech-bubble-3" data-name="speech-bubble" transform="translate(679.212 6099.293)">
      <path id="_3" data-name="3" d="M196.452,56.836A56.2,56.2,0,0,0,140.323.707H56.129A56.2,56.2,0,0,0,0,56.836v49.113A56.152,56.152,0,0,0,52.621,161.9V148.046a3.508,3.508,0,0,1,7.016,0v47.661L64.4,190.94a97.9,97.9,0,0,1,69.67-28.861h6.248a56.2,56.2,0,0,0,56.129-56.129Z" fill="#d5d5d5"/>
    </g>
    <g id="speech-bubble-4" data-name="speech-bubble" transform="translate(554.003 5783.083)">
      <path id="_3-2" data-name="3" d="M250.958,72.409a71.793,71.793,0,0,0-71.7-71.7H71.7A71.793,71.793,0,0,0,0,72.409v62.739a71.731,71.731,0,0,0,67.221,71.475v-17.7a4.481,4.481,0,0,1,8.963,0V249.81l6.085-6.09a125.063,125.063,0,0,1,89-36.869h7.982a71.793,71.793,0,0,0,71.7-71.7Z" fill="#d5d5d5"/>
    </g>
    <g id="speech-bubble-5" data-name="speech-bubble" transform="translate(619.212 6361.293)">
      <path id="_5" data-name="5" d="M152.788,44.361A43.7,43.7,0,0,0,109.134.707H43.654A43.7,43.7,0,0,0,0,44.361v38.2a43.671,43.671,0,0,0,40.925,43.514V115.3a2.728,2.728,0,1,1,5.457,0v37.067l3.708-3.708a76.138,76.138,0,0,1,54.185-22.446h4.859a43.7,43.7,0,0,0,43.654-43.654Z" fill="#d5d5d5"/>
    </g>
    <g id="speech-bubble-6" data-name="speech-bubble" transform="translate(226.877 6427.293)">
      <path id="_4" data-name="4" d="M235.123,68.9c0-37.6-30.138-68.188-67.178-68.188H67.178C30.138.707,0,31.3,0,68.9v59.66c0,36.161,27.9,65.755,62.979,67.971V179.7a4.2,4.2,0,0,1,8.4,0v57.9l5.706-5.792a116.3,116.3,0,0,1,83.385-35.062h7.478c37.04,0,67.178-30.591,67.178-68.188Z" fill="#d5d5d5"/>
    </g>
  </g>
</svg>
