<?xml version="1.0" encoding="UTF-8" standalone="no"?>
<!DOCTYPE svg PUBLIC "-//W3C//DTD SVG 1.1//EN" "http://www.w3.org/Graphics/SVG/1.1/DTD/svg11.dtd">
<svg version="1.1" xmlns="http://www.w3.org/2000/svg" xmlns:xlink="http://www.w3.org/1999/xlink" preserveAspectRatio="xMidYMid meet" viewBox="0 0 1100 300" width="1100" height="300"><defs><path d="M0 0L1100 0L1100 300L0 300L0 0Z" id="gyh5BJGke"></path><path d="M130.07 70.85L132.39 70.99L134.66 71.19L136.88 71.44L139.04 71.75L141.16 72.11L143.22 72.53L145.23 73L147.19 73.53L149.09 74.11L150.94 74.75L152.73 75.44L154.46 76.18L156.14 76.98L157.76 77.83L159.32 78.73L160.82 79.69L162.26 80.69L163.64 81.75L164.96 82.87L166.22 84.03L167.42 85.25L168.55 86.51L169.62 87.83L170.63 89.2L171.57 90.62L172.44 92.09L173.25 93.61L173.99 95.19L174.67 96.81L175.27 98.48L175.81 100.2L176.28 101.97L176.68 103.79L177 105.65L177.26 107.57L177.44 109.53L177.55 111.54L177.59 113.6L177.57 115.08L177.51 116.53L177.42 117.96L177.29 119.36L177.12 120.73L176.92 122.08L176.68 123.4L176.41 124.69L176.1 125.96L175.76 127.2L175.38 128.41L174.97 129.6L174.53 130.76L174.06 131.9L173.56 133.01L173.02 134.09L172.46 135.14L171.87 136.17L171.24 137.17L170.59 138.15L169.91 139.09L169.2 140.01L168.46 140.91L167.7 141.77L166.91 142.61L166.09 143.43L165.25 144.21L164.38 144.97L163.49 145.7L162.57 146.4L161.63 147.08L160.67 147.72L159.68 148.34L158.68 148.94L157.65 149.5L156.6 150.04L155.53 150.55L154.44 151.03L153.32 151.49L152.19 151.92L153.79 152.28L155.35 152.67L156.87 153.1L158.35 153.57L159.8 154.08L161.21 154.62L162.58 155.2L163.92 155.82L165.22 156.47L166.48 157.15L167.7 157.88L168.89 158.64L170.04 159.43L171.14 160.26L172.21 161.13L173.24 162.03L174.23 162.96L175.18 163.93L176.09 164.94L176.96 165.98L177.79 167.06L178.58 168.17L179.33 169.32L180.04 170.5L180.71 171.72L181.33 172.97L181.92 174.25L182.46 175.57L182.96 176.93L183.42 178.32L183.83 179.74L184.2 181.19L184.53 182.69L184.82 184.21L185.06 185.77L185.26 187.36L185.42 188.98L185.53 190.64L185.6 192.34L185.62 194.06L185.58 196.16L185.48 198.21L185.3 200.21L185.06 202.17L184.74 204.08L184.36 205.94L183.9 207.75L183.38 209.52L182.78 211.24L182.12 212.9L181.38 214.52L180.58 216.09L179.7 217.61L178.76 219.08L177.74 220.49L176.66 221.86L175.5 223.18L174.28 224.44L172.98 225.65L171.62 226.81L170.18 227.91L168.68 228.96L167.1 229.96L165.46 230.9L163.74 231.79L161.96 232.63L160.11 233.41L158.18 234.13L156.19 234.8L154.12 235.41L151.99 235.97L149.78 236.47L147.51 236.91L145.16 237.29L142.75 237.62L140.26 237.88L137.71 238.09L135.08 238.24L132.39 238.33L129.62 238.36L61.91 238.36L61.91 227.82L72.98 227.82L72.98 227.82L129.62 227.82L131.78 227.8L133.89 227.75L135.94 227.65L137.95 227.51L139.9 227.32L141.81 227.1L143.66 226.84L145.46 226.54L147.21 226.19L148.91 225.8L150.56 225.37L152.15 224.9L153.69 224.38L155.18 223.82L156.62 223.22L158 222.57L159.33 221.88L160.6 221.14L161.83 220.36L162.99 219.53L164.1 218.66L165.16 217.74L166.16 216.78L167.11 215.77L168 214.72L168.84 213.61L169.62 212.47L170.34 211.27L171.01 210.02L171.62 208.73L172.17 207.39L172.67 206L173.11 204.56L173.49 203.08L173.81 201.54L174.08 199.95L174.28 198.32L174.43 196.63L174.52 194.89L174.55 193.1L174.52 191.33L174.43 189.61L174.28 187.94L174.08 186.32L173.81 184.75L173.49 183.22L173.11 181.75L172.67 180.32L172.17 178.94L171.62 177.61L171.01 176.33L170.34 175.09L169.62 173.91L168.84 172.76L168 171.67L167.11 170.62L166.16 169.62L165.16 168.66L164.1 167.75L162.99 166.88L161.83 166.06L160.6 165.28L159.33 164.55L158 163.86L156.62 163.22L155.18 162.62L153.69 162.06L152.15 161.54L150.56 161.07L148.91 160.64L147.21 160.25L145.46 159.91L143.66 159.6L141.81 159.34L139.9 159.12L137.95 158.94L135.94 158.8L133.89 158.7L131.78 158.64L129.62 158.62L75.17 158.62L75.17 158.62L61.91 158.62L61.91 148.08L72.98 148.08L72.98 148.08L124.85 148.08L126.8 148.06L128.7 148L130.57 147.89L132.39 147.75L134.17 147.56L135.91 147.33L137.6 147.05L139.24 146.74L140.85 146.38L142.4 145.98L143.92 145.54L145.38 145.05L146.8 144.53L148.18 143.96L149.51 143.35L150.78 142.7L152.02 142L153.2 141.27L154.34 140.49L155.42 139.67L156.46 138.81L157.45 137.91L158.39 136.97L159.27 135.98L160.11 134.95L160.9 133.88L161.63 132.77L162.31 131.62L162.94 130.43L163.52 129.19L164.04 127.92L164.51 126.6L164.93 125.24L165.29 123.84L165.6 122.39L165.85 120.91L166.05 119.38L166.19 117.82L166.27 116.21L166.3 114.56L166.27 112.93L166.19 111.34L166.05 109.79L165.85 108.27L165.6 106.8L165.29 105.38L164.93 103.99L164.51 102.64L164.04 101.33L163.52 100.07L162.94 98.84L162.31 97.65L161.63 96.51L160.9 95.41L160.11 94.35L159.27 93.33L158.39 92.35L157.45 91.41L156.46 90.51L155.42 89.66L154.34 88.84L153.2 88.07L152.02 87.34L150.78 86.65L149.51 86L148.18 85.39L146.8 84.82L145.38 84.3L143.92 83.82L142.4 83.38L140.85 82.98L139.24 82.62L137.6 82.31L135.91 82.03L134.17 81.8L132.39 81.61L130.57 81.46L128.7 81.36L126.8 81.3L124.85 81.27L74.71 81.27L74.71 81.27L61.91 81.27L61.91 70.74L125.28 70.74L127.7 70.77L130.07 70.85Z" id="b1BelzVOpi"></path><path d="M263.94 112.52L265.92 112.67L267.86 112.88L269.74 113.14L271.58 113.47L273.38 113.85L275.12 114.3L276.81 114.8L278.46 115.36L280.06 115.98L281.6 116.65L283.1 117.39L284.54 118.18L285.94 119.03L287.28 119.94L288.58 120.91L289.82 121.94L291.01 123.03L292.14 124.17L293.23 125.37L294.26 126.63L295.24 127.94L296.16 129.32L297.03 130.75L297.85 132.24L298.62 133.79L299.32 135.39L299.98 137.05L300.58 138.77L301.12 140.55L301.61 142.38L302.04 144.27L302.41 146.22L302.73 148.22L302.99 150.29L303.19 152.4L303.34 154.58L303.43 156.81L303.46 159.1L303.46 238.36L293.04 238.36L293.04 216.09L292.49 217.16L291.91 218.2L291.31 219.23L290.69 220.23L290.04 221.21L289.36 222.17L288.66 223.11L287.94 224.02L287.19 224.91L286.42 225.78L285.62 226.63L284.8 227.44L283.95 228.24L283.08 229.01L282.19 229.75L281.27 230.47L280.33 231.17L279.36 231.84L278.37 232.48L277.36 233.09L276.32 233.68L275.26 234.24L274.18 234.77L273.07 235.28L271.94 235.76L270.78 236.21L269.61 236.63L268.41 237.02L267.18 237.38L265.94 237.71L264.67 238.01L263.38 238.28L262.06 238.52L260.73 238.73L259.37 238.91L257.98 239.06L256.58 239.17L255.15 239.25L253.71 239.3L252.24 239.32L250.35 239.29L248.5 239.21L246.69 239.08L244.92 238.9L243.19 238.66L241.5 238.37L239.85 238.04L238.24 237.65L236.67 237.22L235.15 236.74L233.66 236.21L232.22 235.64L230.83 235.02L229.48 234.36L228.17 233.65L226.9 232.9L225.69 232.1L224.52 231.27L223.39 230.39L222.31 229.47L221.28 228.51L220.3 227.52L219.37 226.48L218.48 225.41L217.65 224.29L216.86 223.15L216.13 221.96L215.45 220.74L214.82 219.49L214.24 218.2L213.71 216.89L213.24 215.53L212.82 214.15L212.46 212.74L212.15 211.29L211.89 209.82L211.69 208.31L211.55 206.78L211.46 205.22L211.43 203.64L211.45 202.23L211.52 200.82L211.62 199.44L211.77 198.06L211.96 196.71L212.2 195.36L212.48 194.04L212.81 192.74L213.19 191.46L213.62 190.2L214.1 188.96L214.63 187.74L215.21 186.56L215.84 185.4L216.53 184.26L217.27 183.16L218.06 182.09L218.92 181.05L219.83 180.04L220.79 179.06L221.82 178.13L222.91 177.22L224.05 176.36L225.26 175.54L226.54 174.75L227.87 174.01L229.27 173.31L230.74 172.65L232.27 172.04L233.87 171.48L235.53 170.96L237.27 170.5L239.08 170.08L240.95 169.72L242.9 169.4L244.92 169.15L247.02 168.94L249.19 168.8L251.43 168.71L253.76 168.68L292.6 168.68L292.6 158.62L292.58 156.9L292.52 155.22L292.41 153.58L292.26 151.98L292.07 150.42L291.83 148.9L291.55 147.43L291.23 145.99L290.87 144.6L290.46 143.25L290.01 141.94L289.52 140.67L288.99 139.45L288.41 138.26L287.8 137.12L287.14 136.03L286.44 134.97L285.7 133.96L284.91 132.99L284.09 132.07L283.22 131.19L282.31 130.35L281.36 129.56L280.37 128.81L279.34 128.11L278.26 127.45L277.15 126.83L275.99 126.26L274.8 125.73L273.56 125.25L272.28 124.81L270.96 124.42L269.6 124.08L268.21 123.78L266.77 123.52L265.29 123.31L263.77 123.15L262.2 123.03L260.6 122.96L258.96 122.94L257.8 122.95L256.63 122.99L255.48 123.05L254.33 123.13L253.18 123.24L252.05 123.37L250.92 123.52L249.8 123.69L248.68 123.88L247.58 124.1L246.48 124.33L245.4 124.59L244.32 124.87L243.25 125.16L242.2 125.48L241.15 125.81L240.11 126.17L239.09 126.54L238.07 126.93L237.07 127.34L236.08 127.77L235.1 128.21L234.13 128.67L233.18 129.15L232.24 129.64L231.31 130.15L230.4 130.67L229.5 131.21L228.61 131.77L227.74 132.34L226.89 132.92L226.04 133.52L225.22 134.13L224.41 134.75L223.62 135.38L222.84 136.03L222.08 136.69L221.33 137.37L220.61 138.05L219.9 138.75L214.47 130.12L215.33 129.31L216.2 128.51L217.1 127.72L218.01 126.95L218.94 126.2L219.89 125.47L220.85 124.75L221.84 124.05L222.83 123.37L223.85 122.71L224.88 122.06L225.92 121.44L226.99 120.83L228.06 120.25L229.15 119.68L230.25 119.13L231.37 118.6L232.5 118.09L233.64 117.6L234.79 117.13L235.96 116.69L237.13 116.26L238.32 115.85L239.52 115.47L240.73 115.11L241.95 114.77L243.18 114.45L244.41 114.15L245.66 113.88L246.92 113.62L248.18 113.4L249.45 113.19L250.72 113.01L252.01 112.85L253.3 112.71L254.6 112.6L255.9 112.52L257.2 112.45L258.52 112.42L259.83 112.4L261.91 112.43L263.94 112.52ZM252.24 178.04L250.57 178.1L248.95 178.2L247.39 178.33L245.88 178.51L244.43 178.72L243.03 178.97L241.68 179.25L240.38 179.57L239.13 179.93L237.94 180.31L236.79 180.73L235.69 181.18L234.65 181.67L233.65 182.18L232.69 182.73L231.79 183.3L230.93 183.91L230.11 184.54L229.34 185.2L228.61 185.89L227.93 186.6L227.29 187.34L226.69 188.1L226.13 188.89L225.61 189.7L225.14 190.54L224.7 191.39L224.3 192.27L223.94 193.17L223.62 194.09L223.33 195.03L223.08 195.99L222.87 196.96L222.69 197.95L222.54 198.96L222.43 199.99L222.35 201.03L222.3 202.09L222.29 203.16L222.31 204.37L222.37 205.56L222.48 206.72L222.63 207.85L222.82 208.97L223.05 210.05L223.33 211.12L223.64 212.15L224 213.16L224.4 214.15L224.83 215.1L225.31 216.03L225.83 216.93L226.38 217.81L226.98 218.65L227.61 219.47L228.29 220.25L229 221.01L229.75 221.74L230.53 222.44L231.36 223.1L232.22 223.74L233.12 224.35L234.05 224.92L235.02 225.46L236.03 225.97L237.07 226.45L238.15 226.89L239.27 227.3L240.41 227.67L241.6 228.02L242.82 228.32L244.07 228.6L245.35 228.83L246.67 229.04L248.02 229.2L249.41 229.33L250.82 229.43L252.27 229.48L253.76 229.5L255.18 229.48L256.58 229.43L257.95 229.33L259.31 229.2L260.64 229.03L261.95 228.83L263.24 228.59L264.5 228.31L265.75 228L266.97 227.65L268.16 227.26L269.34 226.84L270.49 226.39L271.62 225.9L272.72 225.37L273.81 224.81L274.86 224.22L275.9 223.59L276.91 222.92L277.9 222.23L278.86 221.5L279.81 220.73L280.72 219.93L281.62 219.1L282.49 218.24L283.33 217.34L284.15 216.42L284.95 215.46L285.72 214.46L286.47 213.44L287.2 212.38L287.9 211.29L288.57 210.18L289.22 209.03L289.85 207.84L290.45 206.63L291.03 205.39L291.58 204.12L292.1 202.82L292.6 201.48L292.6 178.02L253.97 178.02L252.24 178.04Z" id="dmd9PPHMy"></path><path d="M436.7 216.33C435.9 215.68 429.47 210.51 428.67 209.87C420.42 222.56 407.83 228.54 393.73 228.54C367.03 228.54 347.5 207.47 347.5 175.86C347.5 144.25 367.03 123.18 393.73 123.18C407.83 123.18 420.42 129.17 428.67 141.86C429.47 141.21 435.9 136.04 436.7 135.39C427.37 120.07 411.74 112.4 393.73 112.4C360.52 112.4 336.43 138.51 336.43 175.86C336.43 212.98 360.52 239.32 393.73 239.32C411.74 239.32 427.37 231.42 436.7 216.33Z" id="b2SIn5Ghr"></path><path d="M555.62 238.36L569.07 238.36L515.46 163.89L564.3 113.36L550.41 113.36L477.92 186.4L477.92 60.68L467.07 60.68L467.07 238.36L477.92 238.36L477.92 201.24L507.43 171.55L555.62 238.36Z" id="c3wi6CfP7i"></path><path d="M702.96 238.36L598.13 238.36L598.13 227.35L626.84 227.35L626.84 227.35L702.96 227.35L702.96 238.36ZM609.2 158.62L609.2 158.62L598.13 158.62L598.13 147.85L620.63 147.85L620.63 147.84L690.15 147.84L690.15 158.62L609.2 158.62ZM620.63 81.75L620.63 81.75L598.13 81.75L598.13 70.74L699.7 70.74L699.7 81.75L620.63 81.75Z" id="c1duwsn19S"></path><path d="M787.89 222.08C783.33 226.63 777.04 229.02 770.31 229.02C756.42 229.02 749.26 220.16 749.26 204.12C749.26 198.75 749.26 171.93 749.26 123.66L785.29 123.66L785.29 113.36L749.26 113.36L749.26 86.06L738.41 86.06L738.41 113.36L717.57 113.36L717.57 123.66L738.41 123.66C738.41 172.65 738.41 199.87 738.41 205.32C738.41 226.39 749.26 239.32 769.23 239.32C777.69 239.32 786.81 236.45 792.45 230.46C791.54 228.78 788.8 223.75 787.89 222.08Z" id="c11fgyqkj2"></path><path d="M906.37 216.33C905.57 215.68 899.14 210.51 898.34 209.87C890.09 222.56 877.5 228.54 863.4 228.54C836.7 228.54 817.17 207.47 817.17 175.86C817.17 144.25 836.7 123.18 863.4 123.18C877.5 123.18 890.09 129.17 898.34 141.86C899.14 141.21 905.57 136.04 906.37 135.39C897.04 120.07 881.41 112.4 863.4 112.4C830.19 112.4 806.1 138.51 806.1 175.86C806.1 212.98 830.19 239.32 863.4 239.32C881.41 239.32 897.04 231.42 906.37 216.33Z" id="a3o4fH1Q5t"></path><path d="M947.59 139.46C947.59 134.21 947.59 107.95 947.59 60.68L936.74 60.68L936.74 238.36L947.59 238.36C947.59 198.42 947.59 176.23 947.59 171.79C947.59 142.1 963.87 123.18 990.56 123.18C1013.57 123.18 1027.24 138.03 1027.24 166.28C1027.24 171.09 1027.24 195.11 1027.24 238.36L1038.09 238.36C1038.09 194.54 1038.09 170.19 1038.09 165.33C1038.09 130.36 1019.64 112.4 992.08 112.4C971.03 112.4 955.4 122.46 947.59 139.46Z" id="cjZ3HnLzc"></path></defs><g><g><g><use xlink:href="#gyh5BJGke" opacity="1" fill="#595655" fill-opacity="1"></use></g><g><use xlink:href="#b1BelzVOpi" opacity="1" fill="#4ea3b6" fill-opacity="1"></use><g><use xlink:href="#b1BelzVOpi" opacity="1" fill-opacity="0" stroke="#000000" stroke-width="1" stroke-opacity="0"></use></g></g><g><use xlink:href="#dmd9PPHMy" opacity="1" fill="#4ea3b6" fill-opacity="1"></use><g><use xlink:href="#dmd9PPHMy" opacity="1" fill-opacity="0" stroke="#000000" stroke-width="1" stroke-opacity="0"></use></g></g><g><use xlink:href="#b2SIn5Ghr" opacity="1" fill="#4ea3b6" fill-opacity="1"></use><g><use xlink:href="#b2SIn5Ghr" opacity="1" fill-opacity="0" stroke="#000000" stroke-width="1" stroke-opacity="0"></use></g></g><g><use xlink:href="#c3wi6CfP7i" opacity="1" fill="#4ea3b6" fill-opacity="1"></use><g><use xlink:href="#c3wi6CfP7i" opacity="1" fill-opacity="0" stroke="#000000" stroke-width="1" stroke-opacity="0"></use></g></g><g><use xlink:href="#c1duwsn19S" opacity="1" fill="#efdccf" fill-opacity="1"></use><g><use xlink:href="#c1duwsn19S" opacity="1" fill-opacity="0" stroke="#000000" stroke-width="1" stroke-opacity="0"></use></g></g><g><use xlink:href="#c11fgyqkj2" opacity="1" fill="#efdccf" fill-opacity="1"></use><g><use xlink:href="#c11fgyqkj2" opacity="1" fill-opacity="0" stroke="#000000" stroke-width="1" stroke-opacity="0"></use></g></g><g><use xlink:href="#a3o4fH1Q5t" opacity="1" fill="#efdccf" fill-opacity="1"></use><g><use xlink:href="#a3o4fH1Q5t" opacity="1" fill-opacity="0" stroke="#000000" stroke-width="1" stroke-opacity="0"></use></g></g><g><use xlink:href="#cjZ3HnLzc" opacity="1" fill="#efdccf" fill-opacity="1"></use><g><use xlink:href="#cjZ3HnLzc" opacity="1" fill-opacity="0" stroke="#000000" stroke-width="1" stroke-opacity="0"></use></g></g></g></g></svg>
